<svg xmlns="http://www.w3.org/2000/svg" width="512" height="512" viewBox="0 0 512 512">
  <rect width="512" height="512" fill="#1a1a2e"/>
  <rect x="96" y="96" width="320" height="320" rx="32" fill="#16213e" stroke="#e94560" stroke-width="8"/>
  <!-- Pixel grid -->
  <g fill="#e94560">
    <rect x="128" y="128" width="32" height="32"/>
    <rect x="192" y="128" width="32" height="32"/>
    <rect x="256" y="128" width="32" height="32"/>
    <rect x="320" y="128" width="32" height="32"/>
    <rect x="160" y="160" width="32" height="32"/>
    <rect x="224" y="160" width="32" height="32"/>
    <rect x="288" y="160" width="32" height="32"/>
    <rect x="128" y="192" width="32" height="32"/>
    <rect x="192" y="192" width="32" height="32"/>
    <rect x="256" y="192" width="32" height="32"/>
    <rect x="320" y="192" width="32" height="32"/>
  </g>
  <g fill="#4cc9f0">
    <rect x="160" y="256" width="32" height="32"/>
    <rect x="224" y="256" width="32" height="32"/>
    <rect x="288" y="256" width="32" height="32"/>
    <rect x="128" y="288" width="32" height="32"/>
    <rect x="192" y="288" width="32" height="32"/>
    <rect x="256" y="288" width="32" height="32"/>
    <rect x="320" y="288" width="32" height="32"/>
    <rect x="160" y="320" width="32" height="32"/>
    <rect x="224" y="320" width="32" height="32"/>
    <rect x="288" y="320" width="32" height="32"/>
    <rect x="352" y="320" width="32" height="32"/>
  </g>
  <!-- Controller button -->
  <circle cx="424" cy="424" r="56" fill="#0f3460" stroke="#4cc9f0" stroke-width="4"/>
  <text x="424" y="436" text-anchor="middle" fill="#4cc9f0" font-size="40" font-family="monospace">▶</text>
</svg>
